wght1000_wdth50.ufo
<glyph name="A" format="2">
	<unicode hex="0041"/>
	<advance width="1500"/>
	<outline>
		<contour>
			<point x="-81.1343994141" y="0" type="line"/>
			<point x="-81.1343994141" y="97.9990234375" type="line"/>
			<point x="131.0220947266" y="121.9990234375" type="line"/>
			<point x="319.4782714844" y="640.7927246094" type="line"/>
			<point x="664.8449707031" y="1487.5610351562" type="line"/>
			<point x="802.5899658203" y="1487.5610351562" type="line"/>
			<point x="1180.2023925781" y="563.0954589844" type="line"/>
			<point x="1346.3820800781" y="130.9990234375" type="line"/>
			<point x="1549.6153564453" y="97.9990234375" type="line"/>
			<point x="1549.6153564453" y="0" type="line"/>
			<point x="935.0372924805" y="0" type="line"/>
			<point x="935.0372924805" y="97.9990234375" type="line"/>
			<point x="1145.962890625" y="134.9990234375" type="line"/>
			<point x="992.7194824219" y="539" type="line"/>
			<point x="773.6005859375" y="1065.5457763672" type="line"/>
			<point x="736.0866699219" y="1178.421875" type="line"/>
			<point x="726.0866699219" y="1178.421875" type="line"/>
			<point x="691.4240722656" y="1065.5457763672" type="line"/>
			<point x="447.1569824219" y="603.2546386719" type="line"/>
			<point x="299.4542236328" y="125.9990234375" type="line"/>
			<point x="502.9951782227" y="97.9990234375" type="line"/>
			<point x="502.9951782227" y="0" type="line"/>
		</contour>
		<contour>
			<point x="564.1303710938" y="471.0126953125" type="line"/>
			<point x="788.9802246094" y="522.5063476562" type="line"/>
			<point x="817.5681152344" y="409.8310546875" type="line"/>
			<point x="564.1303710938" y="371.662109375" type="line"/>
		</contour>
		<contour>
			<point x="289.88671875" y="409.8310546875" type="line"/>
			<point x="326.1574707031" y="521.5063476562" type="line"/>
			<point x="564.1303710938" y="471.0126953125" type="line"/>
			<point x="564.1303710938" y="371.662109375" type="line"/>
		</contour>
	</outline>
	<anchor name="bottom" x="735" y="0"/>
	<anchor name="ogonek" x="1318" y="0"/>
	<anchor name="tonos" x="492" y="1500"/>
	<anchor name="top" x="753" y="1500"/>
</glyph>
<glyph name="C" format="2">
	<unicode hex="0043"/>
	<advance width="1672"/>
	<outline>
		<contour>
			<point x="81.001953125" y="722" type="qcurve" smooth="yes"/>
			<point x="81.001953125" y="1090.8325195312"/>
			<point x="450.9190673828" y="1516.5366210938"/>
			<point x="817.072265625" y="1516.5366210938" type="qcurve" smooth="yes"/>
			<point x="957.6198730469" y="1516.5366210938"/>
			<point x="1265.2490234375" y="1449.2780761719"/>
			<point x="1329.572265625" y="1410" type="qcurve"/>
			<point x="1396.34765625" y="1499" type="line"/>
			<point x="1475.5400390625" y="1499" type="line"/>
			<point x="1475.5400390625" y="1000.7368164062" type="line"/>
			<point x="1352.3377075195" y="1000.7368164062" type="line"/>
			<point x="1308.4052734375" y="1190.1416015625" type="line" smooth="yes"/>
			<point x="1288.95703125" y="1273.6845703125"/>
			<point x="1045.4421386719" y="1381.2841796875"/>
			<point x="876.9450683594" y="1381.2841796875" type="qcurve" smooth="yes"/>
			<point x="596.9450683594" y="1381.2841796875"/>
			<point x="276.9580078125" y="1066.3070678711"/>
			<point x="274.9580078125" y="738" type="qcurve" smooth="yes"/>
			<point x="272.9580078125" y="478.3375244141"/>
			<point x="601.0185546875" y="171.40625"/>
			<point x="895.0185546875" y="171.40625" type="qcurve" smooth="yes"/>
			<point x="1109.0185546875" y="171.40625"/>
			<point x="1409.5576171875" y="268.3908691406"/>
			<point x="1511.2619628906" y="369.3864746094" type="qcurve"/>
			<point x="1609.1982421875" y="275" type="line"/>
			<point x="1483.7805175781" y="148.4829101562"/>
			<point x="1057.615234375" y="-9.5366210938"/>
			<point x="892.9387207031" y="-9.5366210938" type="qcurve" smooth="yes"/>
			<point x="554.3044433594" y="-9.5366210938"/>
			<point x="81.001953125" y="383.1920166016"/>
		</contour>
	</outline>
	<anchor name="bottom" x="836" y="0"/>
	<anchor name="top" x="836" y="1500"/>
</glyph>
<glyph name="D" format="2">
	<unicode hex="0044"/>
	<advance width="1590"/>
	<outline>
		<contour>
			<point x="82.9962158203" y="0" type="line"/>
			<point x="82.9962158203" y="98.9990234375" type="line"/>
			<point x="289.9991455078" y="133.9990234375" type="line"/>
			<point x="291.9991455078" y="754" type="line"/>
			<point x="289.9991455078" y="1354.0009765625" type="line"/>
			<point x="82.9962158203" y="1388.0009765625" type="line"/>
			<point x="82.9962158203" y="1500" type="line"/>
			<point x="736.8443603516" y="1500" type="line" smooth="yes"/>
			<point x="1093.9274902344" y="1500"/>
			<point x="1506.0205078125" y="1119"/>
			<point x="1506.0205078125" y="777" type="qcurve" smooth="yes"/>
			<point x="1506.0205078125" y="410"/>
			<point x="1055.6636962891" y="0"/>
			<point x="670.6693115234" y="0" type="qcurve" smooth="yes"/>
		</contour>
		<contour>
			<point x="466.283203125" y="126.5483398438" type="line"/>
			<point x="499.7802734375" y="124.5483398438"/>
			<point x="641.8020019531" y="122.5483398438"/>
			<point x="714.1838378906" y="122.5483398438" type="qcurve" smooth="yes"/>
			<point x="999.1838378906" y="122.5483398438"/>
			<point x="1317.9228515625" y="461.7110595703"/>
			<point x="1321.7001953125" y="753" type="qcurve" smooth="yes"/>
			<point x="1322.64453125" y="1051.0901489258"/>
			<point x="1002.9094238281" y="1374.90234375"/>
			<point x="692.9094238281" y="1374.90234375" type="qcurve" smooth="yes"/>
			<point x="637.2473144531" y="1374.90234375"/>
			<point x="500.5576171875" y="1368.90234375"/>
			<point x="467.283203125" y="1365.90234375" type="qcurve"/>
			<point x="464.283203125" y="747" type="line"/>
		</contour>
	</outline>
	<anchor name="bottom" x="686" y="0"/>
	<anchor name="center" x="438" y="754"/>
	<anchor name="top" x="686" y="1500"/>
	<anchor name="liga" x="1590" y="0"/>
</glyph>
<glyph name="G" format="2">
	<unicode hex="0047"/>
	<advance width="1483"/>
	<outline>
		<contour>
			<point x="81.001953125" y="713" type="qcurve" smooth="yes"/>
			<point x="81.001953125" y="1113.2780761719"/>
			<point x="489.5008544922" y="1515.5366210938"/>
			<point x="801.0433349609" y="1515.5366210938" type="qcurve" smooth="yes"/>
			<point x="991.0711669922" y="1515.5366210938"/>
			<point x="1121.9896240234" y="1452.7658691406"/>
			<point x="1190.2083740234" y="1406" type="qcurve"/>
			<point x="1240.7630615234" y="1499" type="line"/>
			<point x="1329.8333740234" y="1499" type="line"/>
			<point x="1329.8333740234" y="1019.4973144531" type="line"/>
			<point x="1189.9382324219" y="1019.4973144531" type="line"/>
			<point x="1166.8704833984" y="1169.7683105469" type="line" smooth="yes"/>
			<point x="1150.8704833984" y="1281.7683105469"/>
			<point x="1024.9578857422" y="1379.8896484375"/>
			<point x="839.2332763672" y="1379.8896484375" type="qcurve" smooth="yes"/>
			<point x="600.2332763672" y="1379.8896484375"/>
			<point x="273.0490722656" y="1055.578125"/>
			<point x="273.0490722656" y="742" type="qcurve" smooth="yes"/>
			<point x="273.0490722656" y="446.0424194336"/>
			<point x="637.2668457031" y="151.0961914062"/>
			<point x="854.2668457031" y="151.0961914062" type="qcurve" smooth="yes"/>
			<point x="977.5382080078" y="151.0961914062"/>
			<point x="1175.1574707031" y="169.7143554688"/>
			<point x="1259.9692382812" y="186.6965332031" type="qcurve"/>
			<point x="1259.9692382812" y="596.0004882812" type="line"/>
			<point x="1070.1972045898" y="626.0004882812" type="line"/>
			<point x="1070.1972045898" y="744.9995117188" type="line"/>
			<point x="1550.1658325195" y="744.9995117188" type="line"/>
			<point x="1550.1658325195" y="626.0004882812" type="line"/>
			<point x="1414.4716796875" y="596.0004882812" type="line"/>
			<point x="1414.4716796875" y="172" type="line"/>
			<point x="1318.1612548828" y="98.2292480469"/>
			<point x="1088.9382324219" y="-9.5366210938"/>
			<point x="915.2705078125" y="-9.5366210938" type="qcurve" smooth="yes"/>
			<point x="541.7612304688" y="-9.5366210938"/>
			<point x="81.001953125" y="371.4829101562"/>
		</contour>
	</outline>
	<anchor name="bottom" x="872" y="0"/>
	<anchor name="top" x="836" y="1500"/>
</glyph>
<glyph name="H" format="2">
	<unicode hex="0048"/>
	<advance width="1736"/>
	<outline>
		<contour>
			<point x="82.9962158203" y="0" type="line"/>
			<point x="82.9962158203" y="99.9990234375" type="line"/>
			<point x="289.9991455078" y="134.9990234375" type="line"/>
			<point x="291.9991455078" y="754" type="line"/>
			<point x="289.9991455078" y="1354.0009765625" type="line"/>
			<point x="82.9962158203" y="1388.0009765625" type="line"/>
			<point x="82.9962158203" y="1500" type="line"/>
			<point x="659.2861328125" y="1500" type="line"/>
			<point x="659.2861328125" y="1388.0009765625" type="line"/>
			<point x="468.283203125" y="1354.0009765625" type="line"/>
			<point x="466.283203125" y="754" type="line"/>
			<point x="468.283203125" y="134.9990234375" type="line"/>
			<point x="659.2861328125" y="99.9990234375" type="line"/>
			<point x="659.2861328125" y="0" type="line"/>
		</contour>
		<contour>
			<point x="230.283203125" y="711.5498046875" type="line"/>
			<point x="230.283203125" y="843.548828125" type="line"/>
			<point x="875.2711181641" y="835.548828125" type="line"/>
			<point x="1524.2864990234" y="843.548828125" type="line"/>
			<point x="1524.2864990234" y="711.5498046875" type="line"/>
			<point x="875.2711181641" y="711.5498046875" type="line"/>
		</contour>
		<contour>
			<point x="1070.2835693359" y="0" type="line"/>
			<point x="1070.2835693359" y="99.9990234375" type="line"/>
			<point x="1267.2864990234" y="134.9990234375" type="line"/>
			<point x="1269.2864990234" y="754" type="line"/>
			<point x="1267.2864990234" y="1354.0009765625" type="line"/>
			<point x="1070.2835693359" y="1388.0009765625" type="line"/>
			<point x="1070.2835693359" y="1500" type="line"/>
			<point x="1652.5734863281" y="1500" type="line"/>
			<point x="1652.5734863281" y="1388.0009765625" type="line"/>
			<point x="1445.5705566406" y="1354.0009765625" type="line"/>
			<point x="1443.5705566406" y="754" type="line"/>
			<point x="1445.5705566406" y="134.9990234375" type="line"/>
			<point x="1652.5734863281" y="99.9990234375" type="line"/>
			<point x="1652.5734863281" y="0" type="line"/>
		</contour>
	</outline>
	<anchor name="bottom" x="870" y="0"/>
	<anchor name="center" x="870" y="1079"/>
	<anchor name="top" x="870" y="1500"/>
	<anchor name="tonos" x="0" y="1500"/>
	<anchor name="cy_descender" x="1658" y="100"/>
</glyph>
<glyph name="J" format="2">
	<unicode hex="004A"/>
	<advance width="762"/>
	<outline>
		<contour>
			<point x="102.0662841797" y="-202.0053710938" type="qcurve"/>
			<point x="102.0662841797" y="-48.8461914062" type="line"/>
			<point x="125.0113525391" y="-49.9761962891"/>
			<point x="150.9655761719" y="-48.3662109375"/>
			<point x="194.8374023438" y="-45.7562255859" type="qcurve" smooth="yes"/>
			<point x="262.5902099609" y="-42.5362548828"/>
			<point x="312.3796386719" y="47.2437744141"/>
			<point x="313.3796386719" y="141.2437744141" type="qcurve" smooth="yes"/>
			<point x="317.3796386719" y="754" type="line"/>
			<point x="315.3796386719" y="1354.0009765625" type="line"/>
			<point x="103.8383178711" y="1388.0009765625" type="line"/>
			<point x="103.8383178711" y="1500" type="line"/>
			<point x="694.8776855469" y="1500" type="line"/>
			<point x="694.8776855469" y="1395.2415771484" type="line"/>
			<point x="498.3365478516" y="1361.2415771484" type="line"/>
			<point x="497.3365478516" y="754" type="line"/>
			<point x="499.3365478516" y="224.4943847656" type="line" smooth="yes"/>
			<point x="500.4965209961" y="6.234375"/>
			<point x="365.1677246094" y="-200.0053710938"/>
			<point x="210.2075195312" y="-207.0053710938" type="qcurve" smooth="yes"/>
			<point x="180.8729248047" y="-209.0053710938"/>
			<point x="117.0205078125" y="-206.0053710938"/>
		</contour>
	</outline>
	<anchor name="bottom" x="376" y="-208"/>
	<anchor name="top" x="376" y="1500"/>
	<anchor name="_liga" x="0" y="0"/>
</glyph>
<glyph name="M" format="2">
	<unicode hex="004D"/>
	<advance width="2149"/>
	<outline>
		<contour>
			<point x="82.9962158203" y="0" type="line"/>
			<point x="82.9962158203" y="99.9990234375" type="line"/>
			<point x="288.9991455078" y="134.9990234375" type="line"/>
			<point x="290.9991455078" y="741" type="line"/>
			<point x="288.9991455078" y="1355.0009765625" type="line"/>
			<point x="82.9962158203" y="1389.0009765625" type="line"/>
			<point x="82.9962158203" y="1500" type="line"/>
			<point x="533.5676269531" y="1505.5695800781" type="line"/>
			<point x="820.1721191406" y="846.8073730469" type="line"/>
			<point x="1004" y="370" type="line"/>
			<point x="1046" y="256" type="line"/>
			<point x="1056" y="256" type="line"/>
			<point x="1098" y="370" type="line"/>
			<point x="1334.4598388672" y="870.0952148438" type="line"/>
			<point x="1603.2110595703" y="1500" type="line"/>
			<point x="2065.9049072266" y="1500" type="line"/>
			<point x="2065.9049072266" y="1389.0009765625" type="line"/>
			<point x="1857.9019775391" y="1355.0009765625" type="line"/>
			<point x="1855.1063232422" y="756" type="line"/>
			<point x="1857.9019775391" y="134.9990234375" type="line"/>
			<point x="2065.9049072266" y="99.9990234375" type="line"/>
			<point x="2065.9049072266" y="0" type="line"/>
			<point x="1463.626953125" y="0" type="line"/>
			<point x="1466.0139160156" y="99.9990234375" type="line"/>
			<point x="1682.3995361328" y="134.9990234375" type="line"/>
			<point x="1684.3995361328" y="757" type="line"/>
			<point x="1646" y="1210" type="line"/>
			<point x="1650" y="1329" type="line"/>
			<point x="1640" y="1331" type="line"/>
			<point x="1601" y="1224" type="line"/>
			<point x="1433.8619384766" y="782.6782226562" type="line"/>
			<point x="1132.2092285156" y="-5" type="line"/>
			<point x="1009.4493408203" y="-5" type="line"/>
			<point x="687.3666992188" y="723.3104248047" type="line"/>
			<point x="458" y="1229" type="line"/>
			<point x="418" y="1336" type="line"/>
			<point x="408" y="1334" type="line"/>
			<point x="413" y="1215" type="line"/>
			<point x="416.3927001953" y="743" type="line"/>
			<point x="418.3927001953" y="134.9990234375" type="line"/>
			<point x="637.3188476562" y="99.9990234375" type="line"/>
			<point x="637.3188476562" y="0" type="line"/>
		</contour>
	</outline>
	<anchor name="bottom" x="1025" y="0"/>
	<anchor name="top" x="1058" y="1500"/>
</glyph>
<glyph name="N" format="2">
	<unicode hex="004E"/>
	<advance width="1574"/>
	<outline>
		<contour>
			<point x="82.9962158203" y="0" type="line"/>
			<point x="82.9962158203" y="99.9990234375" type="line"/>
			<point x="288.9991455078" y="133.9990234375" type="line"/>
			<point x="290.9991455078" y="754" type="line"/>
			<point x="288.9991455078" y="1355.0009765625" type="line"/>
			<point x="82.9962158203" y="1389.0009765625" type="line"/>
			<point x="82.9962158203" y="1500" type="line"/>
			<point x="470.2856445312" y="1500" type="line"/>
			<point x="905.5760498047" y="799.4998779297" type="line"/>
			<point x="1117.7946777344" y="418.0010986328" type="line"/>
			<point x="1171.3416748047" y="315.2843017578" type="line"/>
			<point x="1182.05078125" y="318.8756103516" type="line"/>
			<point x="1173.7553710938" y="454.8756103516" type="line"/>
			<point x="1171.2556152344" y="760.4536132812" type="line"/>
			<point x="1169.8469238281" y="1355.0009765625" type="line"/>
			<point x="945.9975585938" y="1389.0009765625" type="line"/>
			<point x="945.9975585938" y="1500" type="line"/>
			<point x="1515.1447753906" y="1500" type="line"/>
			<point x="1515.1447753906" y="1389.0009765625" type="line"/>
			<point x="1308.1418457031" y="1355.0009765625" type="line"/>
			<point x="1302.1418457031" y="756.4536132812" type="line"/>
			<point x="1304.1418457031" y="0" type="line"/>
			<point x="1215.0993652344" y="0" type="line"/>
			<point x="808.8260498047" y="635.8272705078" type="line"/>
			<point x="478.7213134766" y="1242.0107421875" type="line"/>
			<point x="426.4597167969" y="1340.921875" type="line"/>
			<point x="416.4597167969" y="1337.3305664062" type="line"/>
			<point x="428.3922119141" y="1216.3305664062" type="line"/>
			<point x="426.2095947266" y="771.9106445312" type="line"/>
			<point x="428.2095947266" y="133.9990234375" type="line"/>
			<point x="675.1357421875" y="99.9990234375" type="line"/>
			<point x="675.1357421875" y="0" type="line"/>
		</contour>
	</outline>
	<anchor name="bottom" x="800" y="0"/>
	<anchor name="top" x="800" y="1500"/>
	<anchor name="engtail" x="1324" y="0"/>
	<anchor name="liga" x="1600" y="0"/>
</glyph>
<glyph name="Q" format="2">
	<unicode hex="0051"/>
	<advance width="1650"/>
	<outline>
		<contour>
			<point x="81.001953125" y="742.7216796875" type="qcurve" smooth="yes"/>
			<point x="81.001953125" y="1070.3796386719"/>
			<point x="510.0749511719" y="1522.0244140625"/>
			<point x="823.2373046875" y="1522.0244140625" type="qcurve" smooth="yes"/>
			<point x="1156.3034667969" y="1522.0244140625"/>
			<point x="1569.1943359375" y="1101.2683105469"/>
			<point x="1569.1943359375" y="760" type="qcurve" smooth="yes"/>
			<point x="1569.1943359375" y="457.7316894531"/>
			<point x="1091.19921875" y="10.7121582031"/>
			<point x="823.1462402344" y="10.7121582031" type="qcurve" smooth="yes"/>
			<point x="506.2127685547" y="10.7121582031"/>
			<point x="81.001953125" y="439.9504394531"/>
		</contour>
		<contour>
			<point x="263.9580078125" y="777.2783203125" type="qcurve" smooth="yes"/>
			<point x="263.9580078125" y="467.3568725586"/>
			<point x="547.8190917969" y="130.943359375"/>
			<point x="818.8190917969" y="130.943359375" type="qcurve" smooth="yes"/>
			<point x="1092.8190917969" y="130.943359375"/>
			<point x="1382.23828125" y="443.9098510742"/>
			<point x="1382.23828125" y="757" type="qcurve" smooth="yes"/>
			<point x="1382.23828125" y="1080.9214477539"/>
			<point x="1090.958984375" y="1377.1027832031"/>
			<point x="825.958984375" y="1377.1027832031" type="qcurve" smooth="yes"/>
			<point x="550.958984375" y="1377.1027832031"/>
			<point x="263.9580078125" y="1092.7238769531"/>
		</contour>
		<contour>
			<point x="573" y="-39" type="qcurve"/>
			<point x="1290" y="-274" type="line"/>
			<point x="1350" y="-274"/>
			<point x="1442" y="-186"/>
			<point x="1475" y="-132" type="qcurve"/>
			<point x="1565" y="-184" type="line"/>
			<point x="1515" y="-288"/>
			<point x="1371" y="-429"/>
			<point x="1239" y="-429" type="qcurve"/>
			<point x="540" y="-194" type="line"/>
			<point x="479" y="-194"/>
			<point x="363" y="-236"/>
			<point x="306" y="-288" type="qcurve"/>
			<point x="238" y="-224" type="line"/>
			<point x="299" y="-132"/>
			<point x="476" y="-39"/>
		</contour>
		<contour>
			<point x="548.9774169922" y="-130.7685546875" type="line"/>
			<point x="634.5972900391" y="180.6748046875" type="line"/>
			<point x="712.4083251953" y="89.2958984375" type="line"/>
			<point x="649.6771240234" y="-174.7041015625" type="line"/>
		</contour>
	</outline>
	<anchor name="bottom" x="832" y="0"/>
	<anchor name="top" x="823" y="1502"/>
</glyph>
<glyph name="S" format="2">
	<unicode hex="0053"/>
	<advance width="1086"/>
	<outline>
		<contour>
			<point x="36.2565917969" y="0" type="line"/>
			<point x="36.2565917969" y="468.5234985352" type="line"/>
			<point x="175.5932617188" y="468.5234985352" type="line"/>
			<point x="185.2604980469" y="389.5205078125" type="line" smooth="yes"/>
			<point x="198.5141601562" y="263.49609375"/>
			<point x="427.9007568359" y="138.7670898438"/>
			<point x="576.18359375" y="138.7670898438" type="qcurve" smooth="yes"/>
			<point x="770.18359375" y="138.7670898438"/>
			<point x="864.13671875" y="340.1252441406"/>
			<point x="864.13671875" y="346.3781738281" type="qcurve" smooth="yes"/>
			<point x="864.13671875" y="456.2849731445"/>
			<point x="670.2658691406" y="627.6811523438"/>
			<point x="439.2071533203" y="722.3748779297" type="qcurve" smooth="yes"/>
			<point x="290.6978759766" y="811.4256591797"/>
			<point x="99.8598632812" y="943.1851806641"/>
			<point x="99.8598632812" y="1123.8669433594" type="qcurve" smooth="yes"/>
			<point x="99.8598632812" y="1302.1458740234"/>
			<point x="353.5400390625" y="1515.5366210938"/>
			<point x="511.2231445312" y="1514.5366210938" type="qcurve" smooth="yes"/>
			<point x="597.0065917969" y="1513.5366210938"/>
			<point x="774.0728759766" y="1456.0725097656"/>
			<point x="811.7874755859" y="1436" type="qcurve"/>
			<point x="831.7874755859" y="1500" type="line"/>
			<point x="931.7913818359" y="1500" type="line"/>
			<point x="931.7913818359" y="1083.3845214844" type="line"/>
			<point x="809.9881591797" y="1083.3845214844" type="line"/>
			<point x="797.7874755859" y="1149.6555175781" type="line" smooth="yes"/>
			<point x="783.0623779297" y="1212.8981933594"/>
			<point x="661.1180419922" y="1353.5375976562"/>
			<point x="513.7706298828" y="1353.5375976562" type="qcurve" smooth="yes"/>
			<point x="356.7706298828" y="1353.5375976562"/>
			<point x="267.2189941406" y="1213.1239013672"/>
			<point x="267.2189941406" y="1200.5817871094" type="qcurve" smooth="yes"/>
			<point x="267.2189941406" y="1172.6530761719"/>
			<point x="405.1605224609" y="1006.3989257812"/>
			<point x="638.4407958984" y="905.5489501953" type="qcurve" smooth="yes"/>
			<point x="789.3039550781" y="819.9774169922"/>
			<point x="1069.3499755859" y="617.58984375"/>
			<point x="1069.3499755859" y="420.5809326172" type="qcurve" smooth="yes"/>
			<point x="1069.3499755859" y="255.4182128906"/>
			<point x="803.4324951172" y="-7.048828125"/>
			<point x="603.9172363281" y="-7.048828125" type="qcurve" smooth="yes"/>
			<point x="456.8184814453" y="-7.048828125"/>
			<point x="186.2443847656" y="48.3388671875"/>
			<point x="158.2604980469" y="86" type="qcurve"/>
			<point x="136.3938598633" y="0" type="line"/>
		</contour>
	</outline>
	<anchor name="bottom" x="599" y="0"/>
	<anchor name="top" x="514" y="1500"/>
</glyph>
<glyph name="T" format="2">
	<unicode hex="0054"/>
	<advance width="1200"/>
	<outline>
		<contour>
			<point x="45.9602050781" y="1057.6253662109" type="line"/>
			<point x="45.9602050781" y="1500" type="line"/>
			<point x="1156.7014160156" y="1500" type="line"/>
			<point x="1156.7014160156" y="1057.6253662109" type="line"/>
			<point x="1046.6975097656" y="1057.6253662109" type="line"/>
			<point x="1010.6953125" y="1387.634765625" type="line"/>
			<point x="705.9682617188" y="1387.634765625" type="line"/>
			<point x="687.9682617188" y="1371.634765625" type="line"/>
			<point x="687.9682617188" y="762.3312988281" type="line"/>
			<point x="689.9682617188" y="132.9990234375" type="line"/>
			<point x="931.2020874023" y="98.9990234375" type="line"/>
			<point x="931.2020874023" y="0" type="line"/>
			<point x="269.0657348633" y="0" type="line"/>
			<point x="269.0657348633" y="98.9990234375" type="line"/>
			<point x="511.6842041016" y="132.9990234375" type="line"/>
			<point x="513.6842041016" y="762.3312988281" type="line"/>
			<point x="513.6842041016" y="1371.634765625" type="line"/>
			<point x="503.6842041016" y="1387.634765625" type="line"/>
			<point x="190.9663085938" y="1387.634765625" type="line"/>
			<point x="154.9641113281" y="1057.6253662109" type="line"/>
		</contour>
	</outline>
	<anchor name="bottom" x="644" y="0"/>
	<anchor name="center" x="644" y="750"/>
	<anchor name="top" x="644" y="1500"/>
	<anchor name="cy_descender" x="951" y="100"/>
</glyph>
<glyph name="U" format="2">
	<unicode hex="0055"/>
	<advance width="1477"/>
	<outline>
		<contour>
			<point x="46.7779541016" y="1389.0009765625" type="line"/>
			<point x="46.7779541016" y="1500" type="line"/>
			<point x="617.8882446289" y="1500" type="line"/>
			<point x="617.8882446289" y="1389.0009765625" type="line"/>
			<point x="398.5776367188" y="1355.0009765625" type="line"/>
			<point x="404.5776367188" y="794" type="line"/>
			<point x="406.5776367188" y="353.7248535156" type="line" smooth="yes"/>
			<point x="406.1457519531" y="263.7053222656"/>
			<point x="602.2266845703" y="117.55078125"/>
			<point x="780.2266845703" y="117.55078125" type="qcurve" smooth="yes"/>
			<point x="942.2266845703" y="117.55078125"/>
			<point x="1118.9206542969" y="284.7053222656"/>
			<point x="1122.9921875" y="393.7248535156" type="qcurve" smooth="yes"/>
			<point x="1122.9921875" y="794" type="line"/>
			<point x="1125.8251953125" y="1355.0009765625" type="line"/>
			<point x="893.8990478516" y="1389.0009765625" type="line"/>
			<point x="893.8990478516" y="1500" type="line"/>
			<point x="1475.8767089844" y="1500" type="line"/>
			<point x="1475.8767089844" y="1389.0009765625" type="line"/>
			<point x="1259.8737792969" y="1355.0009765625" type="line"/>
			<point x="1256.8737792969" y="794" type="line"/>
			<point x="1254.3154296875" y="373" type="line" smooth="yes"/>
			<point x="1252.7014160156" y="205.7316894531"/>
			<point x="1071.8466796875" y="-9.5366210938"/>
			<point x="737.3382568359" y="-9.5366210938" type="qcurve" smooth="yes"/>
			<point x="474.419921875" y="-9.5366210938"/>
			<point x="240.8576660156" y="211.4829101562"/>
			<point x="240.8576660156" y="446" type="qcurve" smooth="yes"/>
			<point x="240.1485595703" y="794" type="line"/>
			<point x="240.8576660156" y="1355.0009765625" type="line"/>
		</contour>
	</outline>
	<anchor name="bottom" x="832" y="0"/>
	<anchor name="ogonek" x="1042" y="0"/>
	<anchor name="top" x="832" y="1500"/>
	<anchor name="topright" x="1590" y="1500"/>
</glyph>
<glyph name="V" format="2">
	<unicode hex="0056"/>
	<advance width="1377"/>
	<outline>
		<contour>
			<point x="-39.3515014648" y="1390.0009765625" type="line"/>
			<point x="-39.3515014648" y="1500" type="line"/>
			<point x="501.3633422852" y="1500" type="line"/>
			<point x="501.3633422852" y="1390.0009765625" type="line"/>
			<point x="308.0532836914" y="1362.0009765625" type="line"/>
			<point x="534.2366333008" y="832.0190429688" type="line"/>
			<point x="709" y="366" type="line"/>
			<point x="746" y="252" type="line"/>
			<point x="756" y="252" type="line"/>
			<point x="793" y="366" type="line"/>
			<point x="943.7830200195" y="948.2236328125" type="line"/>
			<point x="1127.8591918945" y="1356.0009765625" type="line"/>
			<point x="906.3950195312" y="1390.0009765625" type="line"/>
			<point x="906.3950195312" y="1500" type="line"/>
			<point x="1465.5557250977" y="1500" type="line"/>
			<point x="1465.5557250977" y="1390.0009765625" type="line"/>
			<point x="1265.3224487305" y="1360.0009765625" type="line"/>
			<point x="1049.555480957" y="881.6318359375" type="line"/>
			<point x="739.8676147461" y="14.9267578125" type="line"/>
			<point x="643.5602416992" y="14.9267578125" type="line"/>
			<point x="368.7446899414" y="721.9307861328" type="line"/>
			<point x="137.9585571289" y="1360.0009765625" type="line"/>
		</contour>
	</outline>
	<anchor name="bottom" x="723" y="0"/>
	<anchor name="top" x="733" y="1500"/>
</glyph>
<glyph name="W" format="2">
	<unicode hex="0057"/>
	<advance width="2039"/>
	<outline>
		<contour>
			<point x="592.3919067383" y="14.9267578125" type="line"/>
			<point x="356.0809936523" y="713.4645996094" type="line"/>
			<point x="136.9585571289" y="1359.0009765625" type="line"/>
			<point x="-39.3515014648" y="1390.0009765625" type="line"/>
			<point x="-39.3515014648" y="1500" type="line"/>
			<point x="483.5051879883" y="1500" type="line"/>
			<point x="483.5051879883" y="1390.0009765625" type="line"/>
			<point x="294.3486938477" y="1362.0009765625" type="line"/>
			<point x="507.5772094727" y="804.3353271484" type="line"/>
			<point x="675" y="370" type="line"/>
			<point x="710" y="256" type="line"/>
			<point x="720" y="256" type="line"/>
			<point x="759" y="370" type="line"/>
			<point x="868" y="674" type="line"/>
			<point x="996" y="1038" type="line"/>
			<point x="835.9403686523" y="1360.0009765625" type="line"/>
			<point x="670.6303100586" y="1384.0009765625" type="line"/>
			<point x="670.6303100586" y="1500" type="line"/>
			<point x="1225.9392700195" y="1500" type="line"/>
			<point x="1225.9392700195" y="1389.0009765625" type="line"/>
			<point x="1050.6292114258" y="1363.0009765625" type="line"/>
			<point x="1211.8842163086" y="885.1158447266" type="line"/>
			<point x="1397" y="370" type="line"/>
			<point x="1430" y="256" type="line"/>
			<point x="1440" y="256" type="line"/>
			<point x="1476" y="370" type="line"/>
			<point x="1629" y="803" type="line"/>
			<point x="1832.9762573242" y="1355.0009765625" type="line"/>
			<point x="1610.5888671875" y="1389.0009765625" type="line"/>
			<point x="1610.5888671875" y="1500" type="line"/>
			<point x="2173.758972168" y="1500" type="line"/>
			<point x="2173.758972168" y="1389.0009765625" type="line"/>
			<point x="1962.6024780273" y="1360.0009765625" type="line"/>
			<point x="1747" y="760" type="line"/>
			<point x="1428.3457641602" y="14.9267578125" type="line"/>
			<point x="1275.0215454102" y="14.9267578125" type="line"/>
			<point x="1096" y="750" type="line"/>
			<point x="1060" y="866" type="line"/>
			<point x="1050" y="866" type="line"/>
			<point x="1014" y="750" type="line"/>
			<point x="703.6497192383" y="14.9267578125" type="line"/>
		</contour>
	</outline>
	<anchor name="bottom" x="1051" y="0"/>
	<anchor name="top" x="1051" y="1500"/>
</glyph>
<glyph name="X" format="2">
	<unicode hex="0058"/>
	<advance width="1303"/>
	<outline>
		<contour>
			<point x="-15.7769165039" y="0" type="line"/>
			<point x="-15.7769165039" y="100.9990234375" type="line"/>
			<point x="184.5331420898" y="134.9990234375" type="line"/>
			<point x="575" y="786" type="line"/>
			<point x="220.0570678711" y="1360.0009765625" type="line"/>
			<point x="44.6702270508" y="1389.0009765625" type="line"/>
			<point x="44.6702270508" y="1500" type="line"/>
			<point x="517.0933837891" y="1500" type="line"/>
			<point x="517.0933837891" y="1389.0009765625" type="line"/>
			<point x="372.3217163086" y="1361.0009765625" type="line"/>
			<point x="601" y="1043" type="line"/>
			<point x="673" y="929" type="line"/>
			<point x="683" y="929" type="line"/>
			<point x="751" y="1043" type="line"/>
			<point x="858.6212768555" y="1359.0009765625" type="line"/>
			<point x="676.0803222656" y="1389.0009765625" type="line"/>
			<point x="676.0803222656" y="1500" type="line"/>
			<point x="1217.7620239258" y="1500" type="line"/>
			<point x="1217.7620239258" y="1389.0009765625" type="line"/>
			<point x="1007.5287475586" y="1360.0009765625" type="line"/>
			<point x="753" y="818" type="line"/>
			<point x="1143.1532592773" y="133.9990234375" type="line"/>
			<point x="1334.4633178711" y="100.9990234375" type="line"/>
			<point x="1334.4633178711" y="0" type="line"/>
			<point x="800.9533691406" y="0" type="line"/>
			<point x="800.9533691406" y="100.9990234375" type="line"/>
			<point x="983.7250366211" y="133.9990234375" type="line"/>
			<point x="727" y="562" type="line"/>
			<point x="655" y="676" type="line"/>
			<point x="645" y="676" type="line"/>
			<point x="577" y="562" type="line"/>
			<point x="334.440612793" y="135.9990234375" type="line"/>
			<point x="527.9815673828" y="100.9990234375" type="line"/>
			<point x="527.9815673828" y="0" type="line"/>
		</contour>
	</outline>
	<anchor name="bottom" x="661" y="0"/>
	<anchor name="top" x="673" y="1500"/>
	<anchor name="cy_descender" x="1386" y="100"/>
	<anchor name="center" x="663" y="811"/>
</glyph>
<glyph name="Y" format="2">
	<unicode hex="0059"/>
	<advance width="1200"/>
	<outline>
		<contour>
			<point x="228.7971191406" y="0" type="line"/>
			<point x="228.7971191406" y="99.9990234375" type="line"/>
			<point x="487.1079101562" y="133.9990234375" type="line"/>
			<point x="487.1079101562" y="659.7652587891" type="line"/>
			<point x="349.7271728516" y="918.9606933594" type="line"/>
			<point x="104.0220947266" y="1357.0009765625" type="line"/>
			<point x="-63.7493896484" y="1389.0009765625" type="line"/>
			<point x="-63.7493896484" y="1500" type="line"/>
			<point x="433.4440307617" y="1500" type="line"/>
			<point x="433.4440307617" y="1389.0009765625" type="line"/>
			<point x="251.7495117188" y="1366.0009765625" type="line"/>
			<point x="487.267578125" y="932.4798583984" type="line"/>
			<point x="659" y="783" type="line"/>
			<point x="669" y="783" type="line"/>
			<point x="758.0830078125" y="1090.96484375" type="line"/>
			<point x="912.8566894531" y="1359.0009765625" type="line"/>
			<point x="695.3925170898" y="1389.0009765625" type="line"/>
			<point x="695.3925170898" y="1500" type="line"/>
			<point x="1273.662109375" y="1500" type="line"/>
			<point x="1273.662109375" y="1389.0009765625" type="line"/>
			<point x="1068.3520507812" y="1358.0009765625" type="line"/>
			<point x="850.8310546875" y="984.9858398438" type="line"/>
			<point x="659.3366699219" y="638.6767578125" type="line"/>
			<point x="659.4282226562" y="133.9990234375" type="line"/>
			<point x="917.3543701172" y="99.9990234375" type="line"/>
			<point x="917.3543701172" y="0" type="line"/>
		</contour>
	</outline>
	<anchor name="bottom" x="636" y="0"/>
	<anchor name="top" x="640" y="1500"/>
	<anchor name="tonos" x="-100" y="1500"/>
	<anchor name="center" x="636" y="582"/>
</glyph>
<glyph name="Z" format="2">
	<unicode hex="005A"/>
	<advance width="1235"/>
	<outline>
		<contour>
			<point x="68.6088867188" y="0" type="line"/>
			<point x="46.0949707031" y="99.4572753906" type="line"/>
			<point x="928.2744140625" y="1362.4516601562" type="line"/>
			<point x="922.2744140625" y="1377.4516601562" type="line"/>
			<point x="266.8579101562" y="1377.4516601562" type="line"/>
			<point x="213.0568847656" y="1086.2424316406" type="line"/>
			<point x="113.8540039062" y="1086.2424316406" type="line"/>
			<point x="113.8540039062" y="1500" type="line"/>
			<point x="1133.7393798828" y="1500" type="line"/>
			<point x="1133.7393798828" y="1401.5219726562" type="line"/>
			<point x="246.7518310547" y="131.6398925781" type="line"/>
			<point x="254.7518310547" y="112.6398925781" type="line"/>
			<point x="974.2846679688" y="112.6398925781" type="line"/>
			<point x="1077.4201660156" y="449.6475830078" type="line"/>
			<point x="1192.1560668945" y="449.6475830078" type="line"/>
			<point x="1129.2885742188" y="0" type="line"/>
		</contour>
	</outline>
	<anchor name="bottom" x="583" y="0"/>
	<anchor name="top" x="583" y="1500"/>
	<anchor name="_liga" x="0" y="0"/>
</glyph>
<glyph name="b" format="2">
	<unicode hex="0062"/>
	<advance width="1032"/>
	<outline>
		<contour>
			<point x="114.3382568359" y="0" type="line"/>
			<point x="116.3382568359" y="531.0014648438" type="line"/>
			<point x="106.2565917969" y="1348.0026855469" type="line"/>
			<point x="-82.3258666992" y="1382.0026855469" type="line"/>
			<point x="-82.3258666992" y="1480.0004882812" type="line"/>
			<point x="166.8902587891" y="1529.0249023438" type="line"/>
			<point x="219.8902587891" y="1529.0249023438" type="line"/>
			<point x="276.8902587891" y="1482.0249023438" type="line"/>
			<point x="274.8902587891" y="906.6760864258" type="line"/>
			<point x="288.2258911133" y="942.6256103516"/>
			<point x="473.727722168" y="1013.9838867188"/>
			<point x="580.2406005859" y="1013.9838867188" type="qcurve" smooth="yes"/>
			<point x="763.5960693359" y="1013.9838867188"/>
			<point x="968.4609375" y="783.6591796875"/>
			<point x="968.4609375" y="520.3713378906" type="qcurve" smooth="yes"/>
			<point x="968.4609375" y="261.4406738281"/>
			<point x="773.8201904297" y="-6.2780761719"/>
			<point x="527.6165771484" y="-6.2780761719" type="qcurve" smooth="yes"/>
			<point x="417.1691894531" y="-6.2780761719"/>
			<point x="271.9998779297" y="51.4877929688"/>
			<point x="230.3421630859" y="87.1206054688" type="qcurve"/>
			<point x="182.3421630859" y="0" type="line"/>
		</contour>
		<contour>
			<point x="268.8902587891" y="417.6804199219" type="line"/>
			<point x="268.8902587891" y="149.8793334961" type="line"/>
			<point x="286.0275878906" y="134.6896972656"/>
			<point x="457.0464477539" y="108.5537719727"/>
			<point x="532.9490356445" y="108.5537719727" type="qcurve" smooth="yes"/>
			<point x="664.0679321289" y="108.5537719727"/>
			<point x="827.6439208984" y="362.7041015625"/>
			<point x="827.6439208984" y="490.6965332031" type="qcurve" smooth="yes"/>
			<point x="827.6439208984" y="666.3562011719"/>
			<point x="648.0324707031" y="876.8168945312"/>
			<point x="522.5018310547" y="876.8168945312" type="qcurve" smooth="yes"/>
			<point x="425.4115600586" y="876.8168945312"/>
			<point x="291.0889892578" y="844.7604370117"/>
			<point x="272.8902587891" y="820.8507080078" type="qcurve"/>
		</contour>
	</outline>
	<anchor name="bottom" x="571" y="0"/>
	<anchor name="top" x="571" y="1533"/>
</glyph>
<glyph name="c" format="2">
	<unicode hex="0063"/>
	<advance width="978"/>
	<outline>
		<contour>
			<point x="63.9986572266" y="485.9674682617" type="qcurve" smooth="yes"/>
			<point x="63.9986572266" y="754.6738891602"/>
			<point x="376.7789306641" y="1022.1379394531"/>
			<point x="588.7130737305" y="1022.1379394531" type="qcurve" smooth="yes"/>
			<point x="715.9486694336" y="1022.1379394531"/>
			<point x="769.1076660156" y="981.8745117188"/>
			<point x="811.5725097656" y="956.6159667969" type="qcurve"/>
			<point x="854.7845458984" y="1011.6159667969" type="line"/>
			<point x="891.2593994141" y="1011.6159667969" type="line"/>
			<point x="896.2593994141" y="648.6830444336" type="line"/>
			<point x="816.8876953125" y="648.6830444336" type="line"/>
			<point x="796.6756591797" y="742.6830444336" type="line" smooth="yes"/>
			<point x="775.7788085938" y="810.6830444336"/>
			<point x="674.8882446289" y="891.94140625"/>
			<point x="582.2924194336" y="891.94140625" type="qcurve" smooth="yes"/>
			<point x="439.9676513672" y="891.94140625"/>
			<point x="277.3056640625" y="699.0239257812"/>
			<point x="277.3056640625" y="516.3659667969" type="qcurve" smooth="yes"/>
			<point x="277.3056640625" y="332.9926757812"/>
			<point x="386.6468505859" y="145.6010742188"/>
			<point x="556.912902832" y="145.6010742188" type="qcurve" smooth="yes"/>
			<point x="680.0219726562" y="145.6010742188"/>
			<point x="839.2040405273" y="197.6473999023"/>
			<point x="911.8804321289" y="249.8120727539" type="qcurve"/>
			<point x="978.7055664062" y="165" type="line"/>
			<point x="902.9118652344" y="90"/>
			<point x="714.7021484375" y="-17.0244140625"/>
			<point x="560.6131591797" y="-17.0244140625" type="qcurve" smooth="yes"/>
			<point x="379.7012329102" y="-17.0244140625"/>
			<point x="63.9986572266" y="239.9801635742"/>
		</contour>
	</outline>
	<anchor name="bottom" x="563" y="0"/>
	<anchor name="top" x="534" y="1000"/>
</glyph>
<glyph name="d" format="2">
	<unicode hex="0064"/>
	<advance width="1220"/>
	<outline>
		<contour>
			<point x="68.2430419922" y="486.2910766602" type="qcurve" smooth="yes"/>
			<point x="68.2430419922" y="716.9725341797"/>
			<point x="330.3101196289" y="1012.9790039062"/>
			<point x="569.8340454102" y="1012.9790039062" type="qcurve" smooth="yes"/>
			<point x="645.2756958008" y="1012.9790039062"/>
			<point x="767.1090698242" y="972.1762695312"/>
			<point x="808.2713623047" y="942.3266601562" type="qcurve"/>
			<point x="799.4498291016" y="1352.0029296875" type="line"/>
			<point x="582.8673706055" y="1386.0029296875" type="line"/>
			<point x="582.8673706055" y="1480.0004882812" type="line"/>
			<point x="874.6772460938" y="1519.0249023438" type="line"/>
			<point x="947.6772460938" y="1519.0249023438" type="line"/>
			<point x="981.4467773438" y="1472.0249023438" type="line"/>
			<point x="979.4467773438" y="482.3381347656" type="line"/>
			<point x="984.4467773438" y="114.9975585938" type="line"/>
			<point x="1189.110168457" y="79.9975585938" type="line"/>
			<point x="1189.110168457" y="0" type="line"/>
			<point x="893.8739013672" y="0" type="line"/>
			<point x="849.0314941406" y="49" type="line"/>
			<point x="829.055847168" y="125.9826660156" type="line"/>
			<point x="793.239440918" y="78.2603759766"/>
			<point x="627.5931396484" y="-3.2780761719"/>
			<point x="508.1005249023" y="-3.2780761719" type="qcurve" smooth="yes"/>
			<point x="311.216796875" y="-3.2780761719"/>
			<point x="68.2430419922" y="255.4154663086"/>
		</contour>
		<contour>
			<point x="248.0981445312" y="515.6162719727" type="qcurve" smooth="yes"/>
			<point x="248.0981445312" y="300.2393188477"/>
			<point x="417.5283203125" y="101.5598754883"/>
			<point x="548.8237304688" y="101.5598754883" type="qcurve" smooth="yes"/>
			<point x="664.8456420898" y="101.5598754883"/>
			<point x="796.6913452148" y="177.7931518555"/>
			<point x="841.384765625" y="220.4219970703" type="qcurve"/>
			<point x="846.9119873047" y="481.8923339844" type="line"/>
			<point x="848.9119873047" y="783.8091430664" type="line"/>
			<point x="808.9647827148" y="837.0222167969"/>
			<point x="659.1022949219" y="909.7791748047"/>
			<point x="559.0120239258" y="909.7791748047" type="qcurve" smooth="yes"/>
			<point x="427.7459716797" y="909.7791748047"/>
			<point x="248.0981445312" y="674.7979125977"/>
		</contour>
	</outline>
	<anchor name="bottom" x="604" y="0"/>
	<anchor name="center" x="876" y="1202"/>
	<anchor name="top" x="604" y="1534"/>
	<anchor name="topright" x="961" y="1000"/>
	<anchor name="liga" x="1207" y="0"/>
</glyph>
<glyph name="e" format="2">
	<unicode hex="0065"/>
	<advance width="1021"/>
	<outline>
		<contour>
			<point x="63.6875610352" y="498.59765625" type="qcurve" smooth="yes"/>
			<point x="63.6875610352" y="751.357421875"/>
			<point x="323.0825805664" y="1021.6120605469"/>
			<point x="534.0294799805" y="1021.6120605469" type="qcurve" smooth="yes"/>
			<point x="718.6531982422" y="1021.6120605469"/>
			<point x="951.131652832" y="792.2404785156"/>
			<point x="967.3338623047" y="580.9180908203" type="qcurve"/>
			<point x="968.0598144531" y="485.8813476562" type="line"/>
			<point x="187.907409668" y="485.8813476562" type="line"/>
			<point x="187.1814575195" y="595.1110839844" type="line"/>
			<point x="802.7347412109" y="595.1110839844" type="line"/>
			<point x="785.2318725586" y="722.2157592773"/>
			<point x="603.337097168" y="902.1187133789"/>
			<point x="500.7774658203" y="902.1187133789" type="qcurve" smooth="yes"/>
			<point x="388.1000366211" y="902.1187133789"/>
			<point x="230.1578979492" y="711.3220214844"/>
			<point x="230.1578979492" y="531.3381347656" type="qcurve" smooth="yes"/>
			<point x="230.1578979492" y="339.6879882812"/>
			<point x="410.4314575195" y="148.4222412109"/>
			<point x="575.1382446289" y="148.4222412109" type="qcurve" smooth="yes"/>
			<point x="668.9102783203" y="148.4222412109"/>
			<point x="837.1914672852" y="226.1323242188"/>
			<point x="866.3244628906" y="263.9223022461" type="qcurve"/>
			<point x="937.081237793" y="180.5936279297" type="line"/>
			<point x="914.4931640625" y="105.2290649414"/>
			<point x="687.3257446289" y="-17.5219726562"/>
			<point x="549.8270263672" y="-17.5219726562" type="qcurve" smooth="yes"/>
			<point x="335.5096435547" y="-17.5219726562"/>
			<point x="63.6875610352" y="250.0550537109"/>
		</contour>
	</outline>
	<anchor name="bottom" x="578" y="0"/>
	<anchor name="ogonek" x="744" y="0"/>
	<anchor name="top" x="539" y="1000"/>
</glyph>
<glyph name="g" format="2">
	<unicode hex="0067"/>
	<advance width="1028"/>
	<outline>
		<contour>
			<point x="35.3952636719" y="-260.5985107422" type="qcurve" smooth="yes"/>
			<point x="35.3952636719" y="-191.5367431641"/>
			<point x="126" y="-51"/>
			<point x="233" y="2" type="qcurve"/>
			<point x="340" y="-21" type="line"/>
			<point x="240" y="-84"/>
			<point x="172.1086425781" y="-204.7294311523"/>
			<point x="172.1086425781" y="-252.0916748047" type="qcurve" smooth="yes"/>
			<point x="172.1086425781" y="-319.8708496094"/>
			<point x="257.2688598633" y="-391.2687988281"/>
			<point x="514.1405639648" y="-391.2687988281" type="qcurve" smooth="yes"/>
			<point x="679.5212402344" y="-391.2687988281"/>
			<point x="896.419128418" y="-310.0357055664"/>
			<point x="896.419128418" y="-241.8521118164" type="qcurve" smooth="yes"/>
			<point x="896.419128418" y="-185.2432250977"/>
			<point x="662.5896606445" y="-133.6865234375"/>
			<point x="434.2617797852" y="-122.4742431641" type="qcurve" smooth="yes"/>
			<point x="228.4785766602" y="-111.5186157227"/>
			<point x="51.2018432617" y="7.8541259766"/>
			<point x="51.2018432617" y="101.6007080078" type="qcurve" smooth="yes"/>
			<point x="51.2018432617" y="179.8709716797"/>
			<point x="212.6817626953" y="305.5629882812"/>
			<point x="316.4769897461" y="342.6613769531" type="qcurve"/>
			<point x="303.2451171875" y="308.7786254883" type="line"/>
			<point x="252.4957885742" y="270.6383056641"/>
			<point x="175.7990112305" y="213.0666503906"/>
			<point x="175.7990112305" y="160.2675170898" type="qcurve" smooth="yes"/>
			<point x="175.7990112305" y="126.7868652344"/>
			<point x="330.8620605469" y="82.1951904297"/>
			<point x="518.8243408203" y="78.7291259766" type="qcurve" smooth="yes"/>
			<point x="762.1119995117" y="73.1435546875"/>
			<point x="995.2396850586" y="-34.0915527344"/>
			<point x="994.5137329102" y="-172.3717041016" type="qcurve" smooth="yes"/>
			<point x="993.7877807617" y="-324.8381347656"/>
			<point x="736.0718994141" y="-489.5317382812"/>
			<point x="443.0590820312" y="-489.5317382812" type="qcurve" smooth="yes"/>
			<point x="222.0585327148" y="-489.5317382812"/>
			<point x="35.3952636719" y="-358.4516601562"/>
		</contour>
		<contour>
			<point x="80.0205078125" y="623.4922485352" type="qcurve" smooth="yes"/>
			<point x="80.0205078125" y="811.9995727539"/>
			<point x="294.8407592773" y="1015.7302246094"/>
			<point x="470.9027099609" y="1015.7302246094" type="qcurve" smooth="yes"/>
			<point x="663.387512207" y="1015.7302246094"/>
			<point x="881.6770629883" y="820.9995727539"/>
			<point x="882.6770629883" y="628.4922485352" type="qcurve" smooth="yes"/>
			<point x="883.6770629883" y="457.3806762695"/>
			<point x="670.3620605469" y="233.6239013672"/>
			<point x="485.9808959961" y="233.6239013672" type="qcurve" smooth="yes"/>
			<point x="303.5192260742" y="233.6239013672"/>
			<point x="80.0205078125" y="442.9849243164"/>
		</contour>
		<contour>
			<point x="260.3455810547" y="631.1007080078" type="qcurve" smooth="yes"/>
			<point x="260.3455810547" y="533.5482177734"/>
			<point x="401.5593261719" y="332.754699707"/>
			<point x="512.2954711914" y="332.754699707" type="qcurve" smooth="yes"/>
			<point x="616.6785888672" y="332.754699707"/>
			<point x="735.9000854492" y="526.7969970703"/>
			<point x="735.9000854492" y="625.3494873047" type="qcurve" smooth="yes"/>
			<point x="735.9000854492" y="723.9019775391"/>
			<point x="599.5287475586" y="905.2587890625"/>
			<point x="488.7926025391" y="905.2587890625" type="qcurve" smooth="yes"/>
			<point x="385.2036132812" y="905.2587890625"/>
			<point x="260.3455810547" y="728.6531982422"/>
		</contour>
		<contour>
			<point x="540" y="925" type="line"/>
			<point x="540" y="1000" type="line"/>
			<point x="1047.3843994141" y="986.447265625" type="line"/>
			<point x="1047.3843994141" y="849.6571044922" type="line"/>
		</contour>
	</outline>
	<anchor name="bottom" x="524" y="-416"/>
	<anchor name="top" x="484" y="1000"/>
</glyph>
<glyph name="k" format="2">
	<unicode hex="006B"/>
	<advance width="1102"/>
	<outline>
		<contour>
			<point x="72.3192138672" y="0" type="line"/>
			<point x="72.3192138672" y="79.9975585938" type="line"/>
			<point x="218.3474121094" y="114.9975585938" type="line"/>
			<point x="220.3474121094" y="532" type="line"/>
			<point x="218.3474121094" y="1352.0029296875" type="line"/>
			<point x="9.4271240234" y="1386.0029296875" type="line"/>
			<point x="9.4271240234" y="1466.7570800781" type="line"/>
			<point x="274.9956054688" y="1529.0249023438" type="line"/>
			<point x="316.9956054688" y="1529.0249023438" type="line"/>
			<point x="373.9956054688" y="1482.0249023438" type="line"/>
			<point x="377.9956054688" y="587" type="line"/>
			<point x="380.9956054688" y="114.9975585938" type="line"/>
			<point x="507.3751220703" y="79.9975585938" type="line"/>
			<point x="507.3751220703" y="0" type="line"/>
		</contour>
		<contour>
			<point x="306.64453125" y="400.5767211914" type="line"/>
			<point x="268.5056152344" y="476.9763183594" type="line"/>
			<point x="699.3709106445" y="873.4497070312" type="line"/>
			<point x="571.3709106445" y="903.4497070312" type="line"/>
			<point x="571.3709106445" y="1003.447265625" type="line"/>
			<point x="937.0274658203" y="1003.447265625" type="line"/>
			<point x="937.0274658203" y="903.4497070312" type="line"/>
			<point x="795.0274658203" y="868.4497070312" type="line"/>
		</contour>
		<contour>
			<point x="442.4736938477" y="565.4084472656" type="line"/>
			<point x="529.5609741211" y="683.2711791992" type="line"/>
			<point x="952.1104125977" y="114.9975585938" type="line"/>
			<point x="1072.1380004883" y="79.9975585938" type="line"/>
			<point x="1072.1380004883" y="0" type="line"/>
			<point x="824.5508422852" y="0" type="line"/>
			<point x="792.5508422852" y="81.9975585938" type="line"/>
			<point x="798.5508422852" y="118.9975585938" type="line"/>
		</contour>
	</outline>
	<anchor name="bottom" x="608" y="0"/>
	<anchor name="top" x="578" y="1534"/>
</glyph>
<glyph name="m" format="2">
	<unicode hex="006D"/>
	<advance width="1921"/>
	<outline>
		<contour>
			<point x="77.7747802734" y="0" type="line"/>
			<point x="77.7747802734" y="79.9975585938" type="line"/>
			<point x="228.7760009766" y="114.9975585938" type="line"/>
			<point x="230.7760009766" y="552" type="line"/>
			<point x="228.7760009766" y="850.7268066406" type="line"/>
			<point x="57.7747802734" y="880.7268066406" type="line"/>
			<point x="57.7747802734" y="973.7243652344" type="line"/>
			<point x="330.0539550781" y="1010.7487792969" type="line"/>
			<point x="365.0539550781" y="983.7487792969" type="line"/>
			<point x="378.0539550781" y="866.7243652344" type="line"/>
			<point x="423.3586425781" y="938.7243652344"/>
			<point x="611.0758666992" y="1014.0073242188"/>
			<point x="731.7104492188" y="1014.0073242188" type="qcurve" smooth="yes"/>
			<point x="864.4619140625" y="1014.0073242188"/>
			<point x="1023.2100830078" y="933.0073242188"/>
			<point x="1041.121887207" y="883.333984375" type="qcurve"/>
			<point x="1083.9858398438" y="937.0073242188"/>
			<point x="1300.4561157227" y="1014.0073242188"/>
			<point x="1410.8914794922" y="1014.0073242188" type="qcurve" smooth="yes"/>
			<point x="1546.176574707" y="1014.0073242188"/>
			<point x="1710.456237793" y="863.0073242188"/>
			<point x="1710.456237793" y="742.0073242188" type="qcurve" smooth="yes"/>
			<point x="1709.456237793" y="704.6936035156"/>
			<point x="1711.4592895508" y="612.9038085938"/>
			<point x="1711.1821899414" y="596" type="qcurve" smooth="yes"/>
			<point x="1715.1821899414" y="113.9975585938" type="line"/>
			<point x="1872.1834106445" y="79.9975585938" type="line"/>
			<point x="1872.1834106445" y="0" type="line"/>
			<point x="1423.9110717773" y="0" type="line"/>
			<point x="1423.9110717773" y="79.9975585938" type="line"/>
			<point x="1548.533996582" y="114.9975585938" type="line"/>
			<point x="1548.533996582" y="549" type="line"/>
			<point x="1552.5888671875" y="737.2584838867" type="line" smooth="yes"/>
			<point x="1554.2108154297" y="812.2584838867"/>
			<point x="1437.4121704102" y="860.2584838867"/>
			<point x="1346.9671630859" y="860.2584838867" type="qcurve" smooth="yes"/>
			<point x="1256.4181518555" y="860.2584838867"/>
			<point x="1083.8585205078" y="774.8667602539"/>
			<point x="1053.8524780273" y="711.0802001953" type="qcurve"/>
			<point x="1050.608581543" y="706.1837768555"/>
			<point x="1050.5235595703" y="606.1206054688"/>
			<point x="1049.7976074219" y="559" type="qcurve" smooth="yes"/>
			<point x="1049.7976074219" y="114.9975585938" type="line"/>
			<point x="1185.798828125" y="79.9975585938" type="line"/>
			<point x="1185.798828125" y="0" type="line"/>
			<point x="770.0745849609" y="0" type="line"/>
			<point x="770.0745849609" y="79.9975585938" type="line"/>
			<point x="894.6975097656" y="114.9975585938" type="line"/>
			<point x="894.6975097656" y="585" type="line"/>
			<point x="894.6975097656" y="735.2584838867" type="line" smooth="yes"/>
			<point x="894.6975097656" y="813.2584838867"/>
			<point x="786.087890625" y="860.2584838867"/>
			<point x="698.5087280273" y="860.2584838867" type="qcurve" smooth="yes"/>
			<point x="608.1185913086" y="860.2584838867"/>
			<point x="435.2490234375" y="771.757019043"/>
			<point x="398.0539550781" y="720.1046142578" type="qcurve"/>
			<point x="398.0539550781" y="545" type="line"/>
			<point x="398.0539550781" y="114.9975585938" type="line"/>
			<point x="528.4334716797" y="79.9975585938" type="line"/>
			<point x="528.4334716797" y="0" type="line"/>
		</contour>
	</outline>
	<anchor name="bottom" x="958" y="0"/>
	<anchor name="top" x="958" y="1000"/>
</glyph>
<glyph name="n" format="2">
	<unicode hex="006E"/>
	<advance width="1257"/>
	<outline>
		<contour>
			<point x="77.7747802734" y="0" type="line"/>
			<point x="77.7747802734" y="79.9975585938" type="line"/>
			<point x="225.7760009766" y="114.9975585938" type="line"/>
			<point x="227.7760009766" y="559.2290039062" type="line"/>
			<point x="225.7760009766" y="850.7268066406" type="line"/>
			<point x="57.7747802734" y="880.7268066406" type="line"/>
			<point x="57.7747802734" y="961.1431274414" type="line"/>
			<point x="332.5875244141" y="1010.7487792969" type="line"/>
			<point x="367.5875244141" y="983.7487792969" type="line"/>
			<point x="384.0394287109" y="833.1354370117" type="line"/>
			<point x="430.2120361328" y="907.5852661133"/>
			<point x="622.862121582" y="1014.0073242188"/>
			<point x="765.1558227539" y="1014.0073242188" type="qcurve" smooth="yes"/>
			<point x="896.5103149414" y="1014.0073242188"/>
			<point x="1046.9844360352" y="877.5263671875"/>
			<point x="1046.9844360352" y="749.2668457031" type="qcurve" smooth="yes"/>
			<point x="1046.9844360352" y="702.2905273438"/>
			<point x="1049.1844482422" y="593.0783691406"/>
			<point x="1048.9844360352" y="586.5119628906" type="qcurve" smooth="yes"/>
			<point x="1052.9844360352" y="113.9975585938" type="line"/>
			<point x="1208.9856567383" y="79.9975585938" type="line"/>
			<point x="1208.9856567383" y="0" type="line"/>
			<point x="747.3576049805" y="0" type="line"/>
			<point x="747.3576049805" y="79.9975585938" type="line"/>
			<point x="878.9805297852" y="114.9975585938" type="line"/>
			<point x="880.9805297852" y="566.2822265625" type="line"/>
			<point x="880.9805297852" y="735.3404541016" type="line" smooth="yes"/>
			<point x="880.9805297852" y="804.9008789062"/>
			<point x="769.6696777344" y="864.5010375977"/>
			<point x="681.2795410156" y="864.5010375977" type="qcurve" smooth="yes"/>
			<point x="591.1857910156" y="864.5010375977"/>
			<point x="425.7926635742" y="784.3746948242"/>
			<point x="395.7799072266" y="713.5107421875" type="qcurve"/>
			<point x="392.7799072266" y="572.9992675781" type="line"/>
			<point x="394.7799072266" y="114.9975585938" type="line"/>
			<point x="544.1594238281" y="79.9975585938" type="line"/>
			<point x="544.1594238281" y="0" type="line"/>
		</contour>
	</outline>
	<anchor name="bottom" x="632" y="0"/>
	<anchor name="top" x="632" y="1000"/>
	<anchor name="liga" x="1264" y="0"/>
</glyph>
<glyph name="o" format="2">
	<unicode hex="006F"/>
	<advance width="1155"/>
	<outline>
		<contour>
			<point x="63.9986572266" y="501.7236328125" type="qcurve" smooth="yes"/>
			<point x="63.9986572266" y="743.3081054688"/>
			<point x="342.0433959961" y="1017.2424316406"/>
			<point x="571.0989990234" y="1017.2424316406" type="qcurve" smooth="yes"/>
			<point x="783.6065063477" y="1017.2424316406"/>
			<point x="1091.2398681641" y="763.4768066406"/>
			<point x="1091.2398681641" y="507.7236328125" type="qcurve" smooth="yes"/>
			<point x="1091.2398681641" y="265.3977050781"/>
			<point x="789.6441650391" y="-14.5366210938"/>
			<point x="577.8626098633" y="-14.5366210938" type="qcurve" smooth="yes"/>
			<point x="360.2763061523" y="-14.5366210938"/>
			<point x="63.9986572266" y="242.2290039062"/>
		</contour>
		<contour>
			<point x="239.9499511719" y="499.7236328125" type="qcurve" smooth="yes"/>
			<point x="240.1697387695" y="366.560546875"/>
			<point x="422.5177612305" y="81.2860717773"/>
			<point x="578.7838134766" y="81.2860717773" type="qcurve" smooth="yes"/>
			<point x="739.1970214844" y="81.2860717773"/>
			<point x="912.9328613281" y="351.9338378906"/>
			<point x="912.9328613281" y="502.7236328125" type="qcurve" smooth="yes"/>
			<point x="912.9328613281" y="664.1018066406"/>
			<point x="732.2557373047" y="901.2437744141"/>
			<point x="576.7838134766" y="901.2437744141" type="qcurve" smooth="yes"/>
			<point x="412.5764770508" y="901.2437744141"/>
			<point x="239.7301635742" y="679.2971191406"/>
		</contour>
	</outline>
	<anchor name="bottom" x="584" y="0"/>
	<anchor name="center" x="584" y="500"/>
	<anchor name="ogonek" x="747" y="0"/>
	<anchor name="top" x="584" y="1000"/>
	<anchor name="topright" x="751" y="1000"/>
	<anchor name="GRKtop" x="584" y="1000"/>
	<anchor name="yu_dash" x="150" y="500"/>
</glyph>
<glyph name="r" format="2">
	<unicode hex="0072"/>
	<advance width="949"/>
	<outline>
		<contour>
			<point x="75.9992675781" y="0" type="line"/>
			<point x="75.9992675781" y="79.9975585938" type="line"/>
			<point x="226.0004882812" y="114.9975585938" type="line"/>
			<point x="229.0004882812" y="522.6030273438" type="line"/>
			<point x="227.0004882812" y="850.7268066406" type="line"/>
			<point x="56.9992675781" y="880.7268066406" type="line"/>
			<point x="56.9992675781" y="973.7243652344" type="line"/>
			<point x="305.2493896484" y="1010.7487792969" type="line"/>
			<point x="359.4384155273" y="983.7487792969" type="line"/>
			<point x="380.9753417969" y="823.7243652344" type="line"/>
			<point x="431.1032714844" y="902.7243652344"/>
			<point x="640.9561767578" y="1004.2746582031"/>
			<point x="752.033203125" y="1003.9975585938" type="qcurve" smooth="yes"/>
			<point x="884.1422729492" y="1003.9975585938" type="line"/>
			<point x="884.1422729492" y="659.0550537109" type="line"/>
			<point x="775.6669921875" y="659.0550537109" type="line"/>
			<point x="757.6669921875" y="794.3282470703" type="line"/>
			<point x="664.3814086914" y="794.3282470703"/>
			<point x="460.8908081055" y="766.2091064453"/>
			<point x="390.6486816406" y="728.0882568359" type="qcurve"/>
			<point x="388.6486816406" y="557.6030273438" type="line"/>
			<point x="388.6486816406" y="114.9975585938" type="line"/>
			<point x="587.2716064453" y="79.9975585938" type="line"/>
			<point x="587.2716064453" y="0" type="line"/>
		</contour>
	</outline>
	<anchor name="bottom" x="432" y="0"/>
	<anchor name="top" x="486" y="1000"/>
</glyph>
<glyph name="t" format="2">
	<unicode hex="0074"/>
	<advance width="669"/>
	<outline>
		<contour>
			<point x="33.0205078125" y="868.9252929688" type="line"/>
			<point x="33.0205078125" y="961.3635253906" type="line"/>
			<point x="187.0205078125" y="991.3635253906"/>
			<point x="278.0948486328" y="1089.0761108398"/>
			<point x="327.5959472656" y="1226.3170166016" type="qcurve"/>
			<point x="307.4691162109" y="1226.3170166016" type="line"/>
			<point x="366.4691162109" y="1163.3170166016" type="line"/>
			<point x="361.4691162109" y="970.2426757812" type="line"/>
			<point x="580.1519775391" y="970.2426757812" type="line"/>
			<point x="580.1519775391" y="856.9252929688" type="line"/>
			<point x="357.4691162109" y="856.9252929688" type="line"/>
			<point x="353.4691162109" y="538.1450195312" type="line"/>
			<point x="358.4691162109" y="220.5371704102" type="line" smooth="yes"/>
			<point x="359.2493286133" y="172.5371704102"/>
			<point x="409.4691162109" y="126.5371704102"/>
			<point x="489.1519775391" y="126.5371704102" type="qcurve" smooth="yes"/>
			<point x="591.1519775391" y="126.5371704102" type="line"/>
			<point x="591.1519775391" y="30" type="line"/>
			<point x="316.6395263672" y="-9.7756347656" type="line"/>
			<point x="242.2637939453" y="-9.7756347656"/>
			<point x="173.1911621094" y="95.4984130859"/>
			<point x="175.1911621094" y="192.2243652344" type="qcurve" smooth="yes"/>
			<point x="183.1911621094" y="538.1450195312" type="line"/>
			<point x="181.1911621094" y="840.9252929688" type="line"/>
		</contour>
	</outline>
	<anchor name="bottom" x="322" y="0"/>
	<anchor name="center" x="312" y="622"/>
	<anchor name="top" x="322" y="1179"/>
	<anchor name="topright" x="540" y="1000"/>
</glyph>
<glyph name="v" format="2">
	<unicode hex="0076"/>
	<advance width="996"/>
	<outline>
		<contour>
			<point x="-22.6356201172" y="903.4497070312" type="line"/>
			<point x="-22.6356201172" y="1003.447265625" type="line"/>
			<point x="432.4490356445" y="1003.447265625" type="line"/>
			<point x="432.4490356445" y="903.4497070312" type="line"/>
			<point x="277.2454833984" y="867.4497070312" type="line"/>
			<point x="408.7749633789" y="480.8901977539" type="line"/>
			<point x="486" y="301" type="line"/>
			<point x="523" y="187" type="line"/>
			<point x="533" y="187" type="line"/>
			<point x="570" y="301" type="line"/>
			<point x="616.1291503906" y="577.3216552734" type="line"/>
			<point x="745.9719848633" y="868.4497070312" type="line"/>
			<point x="601.1197509766" y="903.4497070312" type="line"/>
			<point x="601.1197509766" y="1003.447265625" type="line"/>
			<point x="1054.5822753906" y="1003.447265625" type="line"/>
			<point x="1054.5822753906" y="903.4497070312" type="line"/>
			<point x="884.8244628906" y="868.4497070312" type="line"/>
			<point x="717.5723266602" y="461.163269043" type="line"/>
			<point x="546.6268920898" y="4.9755859375" type="line"/>
			<point x="409.5341796875" y="4.9755859375" type="line"/>
			<point x="262.3486938477" y="433.7261352539" type="line"/>
			<point x="107.2570800781" y="868.4497070312" type="line"/>
		</contour>
	</outline>
	<anchor name="bottom" x="513" y="0"/>
	<anchor name="top" x="513" y="1000"/>
</glyph>
<glyph name="w" format="2">
	<unicode hex="0077"/>
	<advance width="1673"/>
	<outline>
		<contour>
			<point x="425.2423095703" y="4.9755859375" type="line"/>
			<point x="264.4463500977" y="467.9398803711" type="line"/>
			<point x="108.2570800781" y="868.4497070312" type="line"/>
			<point x="-22.6356201172" y="903.4497070312" type="line"/>
			<point x="-22.6356201172" y="1003.447265625" type="line"/>
			<point x="395.0798339844" y="1003.447265625" type="line"/>
			<point x="395.0798339844" y="903.4497070312" type="line"/>
			<point x="293.8762817383" y="868.4497070312" type="line"/>
			<point x="433.1655883789" y="498.8120727539" type="line"/>
			<point x="483" y="294" type="line"/>
			<point x="521" y="180" type="line"/>
			<point x="531" y="180" type="line"/>
			<point x="568" y="294" type="line"/>
			<point x="658.7630004883" y="401.8856811523" type="line"/>
			<point x="725" y="747" type="line"/>
			<point x="652.9779052734" y="868.4497070312" type="line"/>
			<point x="534.7069091797" y="903.4497070312" type="line"/>
			<point x="534.7069091797" y="1003.447265625" type="line"/>
			<point x="1010.8532104492" y="1003.447265625" type="line"/>
			<point x="1010.8532104492" y="903.4497070312" type="line"/>
			<point x="867.6496582031" y="868.4497070312" type="line"/>
			<point x="1048.1975708008" y="381.9989013672" type="line"/>
			<point x="1045" y="294" type="line"/>
			<point x="1082" y="180" type="line"/>
			<point x="1092" y="180" type="line"/>
			<point x="1128" y="294" type="line"/>
			<point x="1283.4630126953" y="472.979309082" type="line"/>
			<point x="1437.2849731445" y="868.4497070312" type="line"/>
			<point x="1296.4327392578" y="903.4497070312" type="line"/>
			<point x="1296.4327392578" y="1003.447265625" type="line"/>
			<point x="1731.8659667969" y="1003.447265625" type="line"/>
			<point x="1731.8659667969" y="903.4497070312" type="line"/>
			<point x="1563.1081542969" y="868.4497070312" type="line"/>
			<point x="1308" y="496" type="line"/>
			<point x="1230.3471069336" y="4.9755859375" type="line"/>
			<point x="1021.2323608398" y="4.9755859375" type="line"/>
			<point x="830" y="480" type="line"/>
			<point x="790" y="595" type="line"/>
			<point x="780" y="595" type="line"/>
			<point x="741" y="480" type="line"/>
			<point x="618.2794799805" y="4.9755859375" type="line"/>
		</contour>
	</outline>
	<anchor name="bottom" x="787" y="0"/>
	<anchor name="top" x="787" y="1000"/>
</glyph>
<glyph name="x" format="2">
	<unicode hex="0078"/>
	<advance width="914"/>
	<outline>
		<contour>
			<point x="-33.0639648438" y="0" type="line"/>
			<point x="-33.0639648438" y="79.9975585938" type="line"/>
			<point x="137.4504394531" y="115.9975585938" type="line"/>
			<point x="332.5767211914" y="431.2109985352" type="line"/>
			<point x="87.3338623047" y="868.4497070312" type="line"/>
			<point x="-30.9371337891" y="903.4497070312" type="line"/>
			<point x="-30.9371337891" y="1003.447265625" type="line"/>
			<point x="390.9105834961" y="1003.447265625" type="line"/>
			<point x="390.9105834961" y="903.4497070312" type="line"/>
			<point x="299.3287353516" y="869.4497070312" type="line"/>
			<point x="433.5972900391" y="686.2805786133" type="line"/>
			<point x="466.9886474609" y="627.635559082" type="line"/>
			<point x="476.9886474609" y="627.635559082" type="line"/>
			<point x="511.119934082" y="690.0228881836" type="line"/>
			<point x="626.4081420898" y="873.4497070312" type="line"/>
			<point x="501.5559082031" y="903.4497070312" type="line"/>
			<point x="501.5559082031" y="1003.447265625" type="line"/>
			<point x="882.4528808594" y="1003.447265625" type="line"/>
			<point x="882.4528808594" y="903.4497070312" type="line"/>
			<point x="745.5601806641" y="868.4497070312" type="line"/>
			<point x="529.9311523438" y="549.3577270508" type="line"/>
			<point x="813.5440673828" y="115.9975585938" type="line"/>
			<point x="946.0989379883" y="79.9975585938" type="line"/>
			<point x="946.0989379883" y="0" type="line"/>
			<point x="467.395690918" y="0" type="line"/>
			<point x="467.395690918" y="79.9975585938" type="line"/>
			<point x="566.9775390625" y="109.9975585938" type="line"/>
			<point x="436.2570800781" y="285.71875" type="line"/>
			<point x="396.2240600586" y="350.2678222656" type="line"/>
			<point x="386.2240600586" y="350.2678222656" type="line"/>
			<point x="359.6929321289" y="276.4658813477" type="line"/>
			<point x="267.6024780273" y="114.9975585938" type="line"/>
			<point x="395.8330078125" y="79.9975585938" type="line"/>
			<point x="395.8330078125" y="0" type="line"/>
		</contour>
	</outline>
	<anchor name="bottom" x="522" y="0"/>
	<anchor name="top" x="522" y="1000"/>
	<anchor name="cy_descender" x="1043" y="80"/>
</glyph>
<glyph name="y" format="2">
	<unicode hex="0079"/>
	<advance width="979"/>
	<outline>
		<contour>
			<point x="-0.8570556641" y="903.4497070312" type="line"/>
			<point x="-0.8570556641" y="1003.447265625" type="line"/>
			<point x="444.3302612305" y="1003.447265625" type="line"/>
			<point x="444.3302612305" y="903.4497070312" type="line"/>
			<point x="286.1267089844" y="867.4497070312" type="line"/>
			<point x="407.3869018555" y="531.2070922852" type="line"/>
			<point x="456.7651367188" y="253.1377563477" type="line"/>
			<point x="472.5913696289" y="151.5348510742" type="line"/>
			<point x="482.5913696289" y="151.5348510742" type="line"/>
			<point x="516.4303588867" y="250.350402832" type="line"/>
			<point x="640.2188720703" y="605.9151611328" type="line"/>
			<point x="767.4168701172" y="868.4497070312" type="line"/>
			<point x="622.5646362305" y="903.4497070312" type="line"/>
			<point x="622.5646362305" y="1003.447265625" type="line"/>
			<point x="1044.3461914062" y="1003.447265625" type="line"/>
			<point x="1044.3461914062" y="903.4497070312" type="line"/>
			<point x="874.5883789062" y="868.4497070312" type="line"/>
			<point x="740.3890380859" y="535.6180419922" type="line"/>
			<point x="482.2133789062" y="-105.9454345703" type="line" smooth="yes"/>
			<point x="418.5018310547" y="-359.087097168"/>
			<point x="340.1672363281" y="-495.2683105469"/>
			<point x="221.9261474609" y="-495.2683105469" type="qcurve"/>
			<point x="73.8836669922" y="-445" type="line"/>
			<point x="73.8836669922" y="-332.5883789062" type="line"/>
			<point x="212.4063110352" y="-332.5883789062" type="line" smooth="yes"/>
			<point x="211.5874023438" y="-332.5883789062"/>
			<point x="293.5795288086" y="-315.1085205078"/>
			<point x="336.5047607422" y="-208.4232788086" type="qcurve" smooth="yes"/>
			<point x="149.0775146484" y="24.2852783203" type="line"/>
			<point x="594.8121337891" y="24.2852783203" type="line"/>
			<point x="231.7500610352" y="537.8478393555" type="line"/>
			<point x="131.0356445312" y="868.4497070312" type="line"/>
		</contour>
	</outline>
	<anchor name="bottom" x="782" y="0"/>
	<anchor name="top" x="524" y="1000"/>
</glyph>
<glyph name="idotless" format="2">
	<unicode hex="0131"/>
	<advance width="675"/>
	<outline>
		<contour>
			<point x="80.4906005859" y="0" type="line"/>
			<point x="80.4906005859" y="79.9975585938" type="line"/>
			<point x="270.7352294922" y="114.9975585938" type="line"/>
			<point x="272.7352294922" y="549.2290039062" type="line"/>
			<point x="271.9351806641" y="850.4497070312" type="line"/>
			<point x="68.4906005859" y="880.4497070312" type="line"/>
			<point x="68.4906005859" y="960.2038574219" type="line"/>
			<point x="328.7391357422" y="1010.4716796875" type="line"/>
			<point x="406.7391357422" y="1010.4716796875" type="line"/>
			<point x="449.7391357422" y="966.4716796875" type="line"/>
			<point x="442.7391357422" y="549.2290039062" type="line"/>
			<point x="444.7391357422" y="114.9975585938" type="line"/>
			<point x="632.9837646484" y="79.9975585938" type="line"/>
			<point x="632.9837646484" y="0" type="line"/>
		</contour>
	</outline>
	<anchor name="bottom" x="320" y="0"/>
	<anchor name="top" x="320" y="1000"/>
	<anchor name="ogonek" x="513" y="0"/>
	<anchor name="liga" x="639" y="0"/>
</glyph>
<glyph name="jdotless" format="2">
	<advance width="566"/>
	<outline>
		<contour>
			<point x="-44.8969116211" y="-496" type="qcurve"/>
			<point x="-44.8969116211" y="-355.2022705078" type="line"/>
			<point x="95.737121582" y="-357.4461669922"/>
			<point x="218.4943237305" y="-237.2815551758"/>
			<point x="218.6943359375" y="-104.4645385742" type="qcurve" smooth="yes"/>
			<point x="220.6943359375" y="552" type="line"/>
			<point x="216.8942871094" y="850.4497070312" type="line"/>
			<point x="34.4497070312" y="880.4497070312" type="line"/>
			<point x="34.4497070312" y="960.2038574219" type="line"/>
			<point x="272.6982421875" y="1010.4716796875" type="line"/>
			<point x="350.6982421875" y="1010.4716796875" type="line"/>
			<point x="393.6982421875" y="966.4716796875" type="line"/>
			<point x="386.6982421875" y="552" type="line"/>
			<point x="389.6982421875" y="-98.7256469727" type="line" smooth="yes"/>
			<point x="390.6982421875" y="-278.5366210938"/>
			<point x="236.2603759766" y="-512.7259521484"/>
		</contour>
	</outline>
	<anchor name="bottom" x="278" y="-436"/>
	<anchor name="top" x="278" y="1000"/>
	<anchor name="_liga" x="0" y="0"/>
</glyph>
